<?xml version="1.0" encoding="UTF-8" standalone="no"?>
<svg
   version="1.1"
   viewBox="0 0 841.89 595.28"
   id="svg121"
   sodipodi:docname="creative-001.svg"
   inkscape:version="1.1.2 (0a00cf5339, 2022-02-04)"
   inkscape:export-filename="/home/zeenempress/Empire/Note/Learn/assets/creative-001A-068.png"
   inkscape:export-xdpi="300"
   inkscape:export-ydpi="300"
   xmlns:inkscape="http://www.inkscape.org/namespaces/inkscape"
   xmlns:sodipodi="http://sodipodi.sourceforge.net/DTD/sodipodi-0.dtd"
   xmlns:xlink="http://www.w3.org/1999/xlink"
   xmlns="http://www.w3.org/2000/svg"
   xmlns:svg="http://www.w3.org/2000/svg">
  <sodipodi:namedview
     id="namedview121"
     pagecolor="#41445a"
     bordercolor="#000000"
     borderopacity="1"
     inkscape:showpageshadow="2"
     inkscape:pageopacity="0"
     inkscape:pagecheckerboard="false"
     inkscape:deskcolor="#ffffff"
     showgrid="true"
     inkscape:zoom="0.74232895"
     inkscape:cx="492.36932"
     inkscape:cy="327.34814"
     inkscape:window-width="1366"
     inkscape:window-height="708"
     inkscape:window-x="0"
     inkscape:window-y="0"
     inkscape:window-maximized="1"
     inkscape:current-layer="Home"
     inkscape:pageshadow="0">
    <inkscape:grid
       id="grid121"
       units="px"
       originx="420.94501"
       originy="297.64001"
       spacingx="0.99999998"
       spacingy="0.99999995"
       empcolor="#0099e5"
       empopacity="0.30196078"
       color="#0099e5"
       opacity="0.14902"
       empspacing="15"
       dotted="false"
       gridanglex="30"
       gridanglez="30"
       visible="true" />
  </sodipodi:namedview>
  <defs
     id="defs1">
    <linearGradient
       id="linearGradient12"
       inkscape:collect="always">
      <stop
         style="stop-color:#000000;stop-opacity:1;"
         offset="0"
         id="stop12" />
      <stop
         style="stop-color:#000000;stop-opacity:0;"
         offset="1"
         id="stop13" />
    </linearGradient>
    <inkscape:path-effect
       effect="skeletal"
       id="path-effect124"
       is_visible="true"
       lpeversion="1"
       pattern="M 0,18.867924 C 0,8.45283 8.45283,0 18.867924,0 c 10.415094,0 18.867924,8.45283 18.867924,18.867924 0,10.415094 -8.45283,18.867924 -18.867924,18.867924 C 8.45283,37.735848 0,29.283018 0,18.867924 Z"
       copytype="single_stretched"
       prop_scale="1"
       scale_y_rel="false"
       spacing="0"
       normal_offset="0"
       tang_offset="0"
       prop_units="false"
       vertical_pattern="false"
       hide_knot="false"
       fuse_tolerance="0" />
    <inkscape:path-effect
       effect="bspline"
       id="path-effect123"
       is_visible="true"
       lpeversion="1.3"
       weight="33.333333"
       steps="2"
       helper_size="0"
       apply_no_weight="true"
       apply_with_weight="true"
       only_selected="false"
       uniform="false" />
    <style
       id="style1">
      .cls-1 {
        fill: #fff;
        font-family: FootlightMTLight, 'Footlight MT Light';
        font-size: 12px;
      }

      .cls-1, .cls-2, .cls-3, .cls-4 {
        stroke-miterlimit: 10;
      }

      .cls-1, .cls-3, .cls-4 {
        stroke: #231f20;
      }

      .cls-2 {
        stroke: #c5f5ff;
      }

      .cls-2, .cls-5, .cls-3, .cls-4 {
        fill: none;
      }

      .cls-5 {
        stroke-width: 0px;
      }

      .cls-3 {
        stroke-width: 3px;
      }
    </style>
    <radialGradient
       inkscape:collect="always"
       xlink:href="#linearGradient12"
       id="radialGradient13"
       cx="586.29852"
       cy="147.99359"
       fx="586.29852"
       fy="147.99359"
       r="8.6002292"
       gradientTransform="matrix(0.70710716,-0.70710641,5.2735223,5.2735279,-608.72487,-217.87931)"
       gradientUnits="userSpaceOnUse" />
    <radialGradient
       inkscape:collect="always"
       xlink:href="#linearGradient12"
       id="radialGradient14"
       cx="586.29858"
       cy="57.286476"
       fx="586.29858"
       fy="57.286476"
       r="8.6002345"
       gradientTransform="matrix(-0.7071068,-0.70710676,5.2735271,-5.2735274,698.77252,773.96396)"
       gradientUnits="userSpaceOnUse" />
    <radialGradient
       inkscape:collect="always"
       xlink:href="#linearGradient12"
       id="radialGradient15"
       cx="495.59149"
       cy="57.286472"
       fx="495.59149"
       fy="57.286472"
       r="8.6002293"
       gradientTransform="matrix(5.2735251,5.2735294,-0.70710791,0.70710734,-2077.415,-2596.7375)"
       gradientUnits="userSpaceOnUse" />
    <radialGradient
       inkscape:collect="always"
       xlink:href="#linearGradient12"
       id="radialGradient16"
       cx="495.59146"
       cy="147.99358"
       fx="495.59146"
       fy="147.99358"
       r="8.6002345"
       gradientTransform="matrix(5.2735312,-5.2735193,0.70710598,0.70710758,-2222.5728,2656.8573)"
       gradientUnits="userSpaceOnUse" />
  </defs>
  <g
     id="Home">
    <g
       id="g73"
       inkscape:label="Text Title"
       style="fill:#0000ff;fill-opacity:1"
       inkscape:export-filename="/home/zeenempress/Empire/Note/Learn/assets/creative-001A-068.png"
       inkscape:export-xdpi="300"
       inkscape:export-ydpi="300">
      <text
         class="cls-1"
         id="text114"
         y="206"
         x="82.908875"
         style="fill:#0000ff;fill-opacity:1;stroke:#bd93f9;stroke-linecap:round;stroke-opacity:1"><tspan
           x="82.908875"
           y="206"
           id="tspan114"
           style="fill:#0000ff;fill-opacity:1;stroke:#bd93f9;stroke-linecap:round;stroke-opacity:1">Emphasis</tspan></text>
      <text
         class="cls-1"
         id="text115"
         x="282.31134"
         y="206"
         style="fill:#0000ff;fill-opacity:1;stroke:#bd93f9;stroke-linecap:round;stroke-opacity:1"><tspan
           x="282.31134"
           y="206"
           id="tspan115"
           style="fill:#0000ff;fill-opacity:1;stroke:#bd93f9;stroke-linecap:round;stroke-opacity:1">Balance</tspan></text>
      <text
         class="cls-1"
         id="text116"
         x="527.19598"
         y="205.75684"
         style="fill:#0000ff;fill-opacity:1;stroke:#bd93f9;stroke-linecap:round;stroke-opacity:1"><tspan
           x="527.19598"
           y="205.75684"
           id="tspan116"
           style="fill:#0000ff;fill-opacity:1;stroke:#bd93f9;stroke-linecap:round;stroke-opacity:1">Unity</tspan></text>
      <text
         class="cls-1"
         id="text117"
         x="715.53656"
         y="205.37935"
         style="fill:#0000ff;fill-opacity:1;stroke:#bd93f9;stroke-linecap:round;stroke-opacity:1"><tspan
           x="715.53656"
           y="205.37935"
           id="tspan117"
           style="fill:#0000ff;fill-opacity:1;stroke:#bd93f9;stroke-linecap:round;stroke-opacity:1">Contrast</tspan></text>
      <text
         class="cls-1"
         id="text118"
         x="85.484871"
         y="444.05093"
         style="fill:#0000ff;fill-opacity:1;stroke:#bd93f9;stroke-linecap:round;stroke-opacity:1"><tspan
           x="85.484871"
           y="444.05093"
           id="tspan118"
           style="fill:#0000ff;fill-opacity:1;stroke:#bd93f9;stroke-linecap:round;stroke-opacity:1">Rhythm</tspan></text>
      <text
         class="cls-1"
         id="text119"
         x="273.67542"
         y="444.05093"
         style="fill:#0000ff;fill-opacity:1;stroke:#bd93f9;stroke-linecap:round;stroke-opacity:1"><tspan
           x="273.67542"
           y="444.05093"
           id="tspan119"
           style="fill:#0000ff;fill-opacity:1;stroke:#bd93f9;stroke-linecap:round;stroke-opacity:1">Proportion</tspan></text>
      <text
         class="cls-1"
         id="text120"
         x="522.02594"
         y="444.05093"
         style="fill:#0000ff;fill-opacity:1;stroke:#bd93f9;stroke-linecap:round;stroke-opacity:1"><tspan
           x="522.02594"
           y="444.05093"
           id="tspan120"
           style="fill:#0000ff;fill-opacity:1;stroke:#bd93f9;stroke-linecap:round;stroke-opacity:1">Variety</tspan></text>
      <text
         class="cls-1"
         id="text121"
         x="711.81079"
         y="444.05093"
         style="fill:#0000ff;fill-opacity:1;stroke:#bd93f9;stroke-linecap:round;stroke-opacity:1"><tspan
           x="711.81079"
           y="444.05093"
           id="tspan121"
           style="fill:#0000ff;fill-opacity:1;stroke:#bd93f9;stroke-linecap:round;stroke-opacity:1">Harmony</tspan></text>
    </g>
    <g
       id="g72"
       inkscape:label="Recta Background">
      <rect
         class="cls-3"
         x="32.244987"
         y="28.940008"
         width="147.40004"
         height="147.40004"
         id="rect106"
         style="fill:#ffffff;fill-opacity:1" />
      <rect
         class="cls-3"
         x="227.24969"
         y="28.944715"
         width="148.47879"
         height="147.39062"
         id="rect107"
         style="fill:#ffffff;fill-opacity:1" />
      <rect
         class="cls-3"
         x="467.245"
         y="28.940008"
         width="147.40004"
         height="147.40005"
         id="rect108"
         style="fill:#ffffff;fill-opacity:1" />
      <rect
         class="cls-3"
         x="661.91333"
         y="27.454508"
         width="149.21719"
         height="148.87105"
         id="rect109"
         style="fill:#ffffff;fill-opacity:1" />
      <rect
         class="cls-3"
         x="30.945007"
         y="267.64001"
         width="147.40004"
         height="147.40004"
         id="rect106-4"
         style="fill:#ffffff;fill-opacity:1;stroke:#231f20;stroke-width:2.59995px;stroke-miterlimit:10" />
      <rect
         class="cls-3"
         x="225.94969"
         y="267.64471"
         width="148.47879"
         height="147.39062"
         id="rect107-5"
         style="fill:#ffffff;fill-opacity:1;stroke:#231f20;stroke-width:2.60937px;stroke-miterlimit:10" />
      <rect
         class="cls-3"
         x="465.94504"
         y="267.64001"
         width="147.40004"
         height="147.40005"
         id="rect108-6"
         style="display:inline;fill:#ffffff;fill-opacity:1;stroke:#000000;stroke-width:2.59995px;stroke-miterlimit:10;stroke-opacity:1" />
      <rect
         class="cls-3"
         x="660.94501"
         y="267.64001"
         width="150"
         height="150.00002"
         id="rect109-0"
         style="fill:#ffffff;fill-opacity:1;stroke:#231f20;stroke-width:2.64582px;stroke-miterlimit:10" />
    </g>
    <g
       id="g131"
       inkscape:label="Contrast Art">
      <path
         style="fill:#000000;fill-opacity:1;stroke:#000000;stroke-linecap:round;stroke-linejoin:round;stroke-opacity:1"
         d="m 735.94502,162.64003 -45,-30 45,-89.999998 z"
         id="path129" />
      <path
         style="fill:#ffffff;fill-opacity:1;stroke:#000000;stroke-width:0.248832;stroke-linecap:round;stroke-linejoin:round;stroke-opacity:1"
         d="m 732.14245,155.10498 -11.19743,-7.46495 11.19743,-22.39486 z"
         id="path129-9" />
      <path
         style="fill:#000000;fill-opacity:1;stroke:#000000;stroke-width:0.248832;stroke-linecap:round;stroke-linejoin:round;stroke-opacity:1"
         d="m 740.26637,155.10498 11.19743,-7.46495 -11.19743,-22.39486 z"
         id="path129-9-9" />
      <path
         style="fill:none;stroke:#000000;stroke-linecap:round;stroke-linejoin:round;stroke-opacity:1"
         d="m 735.94502,162.64003 45,-30 -45,-89.999998 z"
         id="path130" />
    </g>
    <g
       id="g67"
       inkscape:label="Unity Art">
      <path
         style="fill:none;stroke:#000000;stroke-width:1;stroke-dasharray:none;stroke-opacity:1"
         d="m 540.94502,87.640031 -15,-14.999999 15,-29.999999 15,29.999999 z"
         id="path7" />
      <path
         style="fill:none;stroke:#000000;stroke-width:1;stroke-dasharray:none;stroke-opacity:1"
         d="m 555.94502,102.64003 15,-14.999999 30,14.999999 -30,15 z"
         id="path8" />
      <path
         style="fill:none;stroke:#000000;stroke-width:1;stroke-dasharray:none;stroke-opacity:1"
         d="m 540.94501,117.54267 15.00001,15.09736 -15.00001,28.70003 -14.99999,-28.70003 z"
         id="path9" />
      <path
         style="fill:none;stroke:#000000;stroke-width:1;stroke-dasharray:none;stroke-opacity:1"
         d="m 525.94502,102.64003 -15,15 -30,-15 30,-14.999999 z"
         id="path10" />
      <path
         style="fill:none;stroke:#000000;stroke-width:1;stroke-dasharray:none;stroke-opacity:1"
         d="m 495.94502,57.640032 90,89.999998"
         id="path11" />
      <path
         style="fill:none;stroke:#000000;stroke-width:1;stroke-dasharray:none;stroke-opacity:1"
         d="M 585.94502,57.640032 495.59147,147.99358"
         id="path12" />
      <path
         style="fill:url(#radialGradient14);stroke:#000000;stroke-width:1;stroke-dasharray:none;stroke-opacity:1"
         d="m 578.19834,65.386715 -10e-6,-10.6066 15.9099,-5.303304 -5.30329,15.909904 z"
         id="path7-9" />
      <path
         style="fill:url(#radialGradient15);stroke:#000000;stroke-width:1;stroke-dasharray:none;stroke-opacity:1"
         d="m 503.6917,65.386713 -10.6066,-4e-6 -5.30328,-15.909906 15.90989,5.30331 z"
         id="path7-9-4" />
      <path
         style="fill:url(#radialGradient16);stroke:#000000;stroke-width:1;stroke-dasharray:none;stroke-opacity:1"
         d="m 503.69169,139.89334 1e-5,10.6066 -15.9099,5.30331 5.30329,-15.90991 z"
         id="path7-9-7" />
      <path
         style="fill:url(#radialGradient13);stroke:#000000;stroke-width:1;stroke-dasharray:none;stroke-opacity:1"
         d="m 578.19833,139.89335 h 10.6066 l 5.30328,15.90991 -15.90989,-5.30331 z"
         id="path7-9-4-5" />
    </g>
    <g
       id="g66"
       inkscape:label="Balance Art">
      <path
         style="fill:none;stroke:#000000;stroke-linecap:round;stroke-linejoin:round;stroke-opacity:1"
         d="m 270.94501,162.64003 -30,-30 30,-89.999998 30,89.999998 z"
         id="path128" />
      <path
         style="fill:none;stroke:#000000;stroke-width:1;stroke-linecap:round;stroke-linejoin:round;stroke-dasharray:none;stroke-opacity:1"
         d="m 270.94501,147.64003 -7.72449,-7.72449 7.72449,-23.17346 7.72448,23.17346 z"
         id="path128-0" />
      <path
         style="fill:none;stroke:#000000;stroke-linecap:round;stroke-linejoin:round;stroke-opacity:1"
         d="m 330.94501,42.640031 -30,30.000001 30,89.999998 30,-89.999998 z"
         id="path128-2" />
      <path
         style="fill:none;stroke:#000000;stroke-width:1;stroke-linecap:round;stroke-linejoin:round;stroke-dasharray:none;stroke-opacity:1"
         d="m 330.94501,57.640032 7.72449,7.72449 -7.72449,23.17346 -7.72448,-23.17346 z"
         id="path128-0-2" />
      <path
         style="fill:#000000;stroke:#000000;stroke-width:1;stroke-dasharray:none;stroke-opacity:1"
         d="M 270.94501,116.74208 V 42.640032"
         id="path1" />
      <path
         style="fill:#000000;stroke:#000000;stroke-width:1;stroke-dasharray:none;stroke-opacity:1"
         d="M 330.94501,88.537982 V 162.64003"
         id="path2" />
      <path
         style="fill:#000000;stroke:#000000;stroke-width:1;stroke-dasharray:none;stroke-opacity:1"
         d="m 323.22053,65.364522 -7.27552,-7.72449"
         id="path3" />
      <path
         style="fill:#000000;stroke:#000000;stroke-width:1;stroke-dasharray:none;stroke-opacity:1"
         d="m 338.6695,65.364522 7.27551,-7.72449"
         id="path4" />
      <path
         style="fill:#000000;stroke:#000000;stroke-width:1;stroke-dasharray:none;stroke-opacity:1"
         d="m 263.22052,139.91554 -7.27551,7.72449"
         id="path5" />
      <path
         style="fill:#000000;stroke:#000000;stroke-width:1;stroke-dasharray:none;stroke-opacity:1"
         d="m 278.66949,139.91554 7.27552,7.72449"
         id="path6" />
      <path
         style="fill:#000000;fill-opacity:1;stroke:#000000;stroke-width:1;stroke-dasharray:none;stroke-opacity:1"
         d="m 263.81419,154.53311 -6.91019,-6.91737 3.25279,-3.37524 3.25279,-3.37525 3.54184,3.7028 c 1.94802,2.03654 3.7574,3.7028 4.02086,3.7028 0.26346,0 2.12928,-1.62196 4.14628,-3.60437 l 3.66726,-3.60437 3.09044,3.25609 3.09044,3.2561 -6.93089,6.93809 c -3.81199,3.81595 -7.01651,6.9381 -7.12116,6.9381 -0.10465,0 -3.29986,-3.11282 -7.10046,-6.91738 z"
         id="path16" />
      <path
         style="fill:#000000;fill-opacity:1;stroke:#000000;stroke-width:1;stroke-dasharray:none;stroke-opacity:1"
         d="m 319.99691,60.870579 -2.96379,-3.197075 6.96103,-6.961036 6.96104,-6.961036 6.9654,6.965397 6.96539,6.965397 -3.09143,3.284239 -3.09143,3.284239 -3.60594,-3.569484 c -1.98327,-1.963216 -3.85336,-3.569483 -4.15577,-3.569483 -0.30241,0 -2.10841,1.565081 -4.01333,3.477958 -1.90492,1.912877 -3.57687,3.477958 -3.71543,3.477958 -0.13857,0 -1.58565,-1.438683 -3.21574,-3.197074 z"
         id="path17" />
    </g>
    <g
       id="g21"
       transform="translate(-1.2962272,13.208256)"
       inkscape:label="Rhythm Art">
      <path
         style="fill:none;fill-opacity:1;stroke:#000000;stroke-width:1;stroke-dasharray:none;stroke-opacity:1"
         d="m 105.94501,357.64003 -15.000001,-15 15.000001,-30 15,30 z"
         id="path19" />
      <path
         style="fill:none;fill-opacity:1;stroke:#000000;stroke-width:1;stroke-dasharray:none;stroke-opacity:1"
         d="m 105.94501,357.64003 v 15 l -30.000001,-30 30.000001,-60 v 30 l -15.000001,30 z"
         id="path20" />
      <path
         style="fill:none;fill-opacity:1;stroke:#000000;stroke-width:1;stroke-dasharray:none;stroke-opacity:1"
         d="m 105.945,351.17478 -8.407266,-8.40727 8.407266,-16.81455 8.40728,16.81455 z"
         id="path19-8" />
      <path
         style="fill:none;fill-opacity:1;stroke:#000000;stroke-width:1;stroke-dasharray:none;stroke-opacity:1"
         d="m 105.94501,346.40619 -3.41242,-3.41242 3.41242,-6.82484 3.41242,6.82484 z"
         id="path19-8-4" />
      <path
         style="fill:none;fill-opacity:1;stroke:#000000;stroke-width:1;stroke-dasharray:none;stroke-opacity:1"
         d="m 122.45508,282.41642 v 15.22359"
         id="path21" />
      <path
         style="fill:none;fill-opacity:1;stroke:#000000;stroke-width:1;stroke-dasharray:none;stroke-opacity:1"
         d="m 108.91018,282.41642 v 6.34564"
         id="path21-0" />
      <path
         style="fill:none;fill-opacity:1;stroke:#000000;stroke-width:1;stroke-dasharray:none;stroke-opacity:1"
         d="m 111.39142,282.41642 v 8.81682"
         id="path21-2" />
      <path
         style="fill:none;fill-opacity:1;stroke:#000000;stroke-width:1;stroke-dasharray:none;stroke-opacity:1"
         d="m 114.08891,282.41642 v 17.69477"
         id="path21-7" />
      <path
         style="fill:none;fill-opacity:1;stroke:#000000;stroke-width:1;stroke-dasharray:none;stroke-opacity:1"
         d="m 116.86351,282.41642 v 12.75241"
         id="path21-20" />
      <path
         style="fill:none;fill-opacity:1;stroke:#000000;stroke-width:1;stroke-dasharray:none;stroke-opacity:1"
         d="m 119.6381,282.41642 v 17.69477"
         id="path21-9" />
      <path
         style="fill:none;fill-opacity:1;stroke:#000000;stroke-width:1;stroke-dasharray:none;stroke-opacity:1"
         d="m 125.27483,282.41642 v 17.87782"
         id="path21-3" />
      <path
         style="fill:none;fill-opacity:1;stroke:#000000;stroke-width:1;stroke-dasharray:none;stroke-opacity:1"
         d="M 128.05057,282.41642 V 295.0773"
         id="path21-04" />
      <path
         style="fill:none;fill-opacity:1;stroke:#000000;stroke-width:1;stroke-dasharray:none;stroke-opacity:1"
         d="m 130.81932,282.41642 v 17.4202"
         id="path21-6" />
      <path
         style="fill:none;fill-opacity:1;stroke:#000000;stroke-width:1;stroke-dasharray:none;stroke-opacity:1"
         d="m 133.66272,282.41642 v 17.14562"
         id="path21-30" />
      <path
         style="fill:none;fill-opacity:1;stroke:#000000;stroke-width:1;stroke-dasharray:none;stroke-opacity:1"
         d="m 136.04588,282.60001 v 90.18274"
         id="path21-30-7" />
      <path
         style="fill:none;fill-opacity:1;stroke:#000000;stroke-width:1;stroke-dasharray:none;stroke-opacity:1"
         d="m 134.09323,358.15589 v 14.49139"
         id="path21-30-75" />
      <path
         style="fill:none;fill-opacity:1;stroke:#000000;stroke-width:1;stroke-dasharray:none;stroke-opacity:1"
         d="m 131.53767,353.85421 v 18.79307"
         id="path21-30-2" />
      <path
         style="fill:none;fill-opacity:1;stroke:#000000;stroke-width:1;stroke-dasharray:none;stroke-opacity:1"
         d="m 128.98212,356.41691 v 16.23037"
         id="path21-30-752" />
      <path
         style="fill:none;fill-opacity:1;stroke:#000000;stroke-width:1;stroke-dasharray:none;stroke-opacity:1"
         d="m 126.42656,358.97962 v 13.66766"
         id="path21-30-26" />
      <path
         style="fill:none;fill-opacity:1;stroke:#000000;stroke-width:1;stroke-dasharray:none;stroke-opacity:1"
         d="m 123.87101,354.67793 v 17.96935"
         id="path21-30-8" />
      <path
         style="fill:none;fill-opacity:1;stroke:#000000;stroke-width:1;stroke-dasharray:none;stroke-opacity:1"
         d="m 121.31545,360.7186 v 11.92868"
         id="path21-30-3" />
      <path
         style="fill:none;fill-opacity:1;stroke:#000000;stroke-width:1;stroke-dasharray:none;stroke-opacity:1"
         d="m 118.7599,354.40336 v 18.24392"
         id="path21-30-1" />
      <path
         style="fill:none;fill-opacity:1;stroke:#000000;stroke-width:1;stroke-dasharray:none;stroke-opacity:1"
         d="m 116.20434,353.94573 v 18.70155"
         id="path21-30-32" />
      <path
         style="fill:none;fill-opacity:1;stroke:#000000;stroke-width:1;stroke-dasharray:none;stroke-opacity:1"
         d="m 113.64879,358.24742 v 14.39986"
         id="path21-30-79" />
      <path
         style="fill:none;fill-opacity:1;stroke:#000000;stroke-width:1;stroke-dasharray:none;stroke-opacity:1"
         d="m 111.09323,360.53555 v 12.11173"
         id="path21-30-6" />
    </g>
    <g
       id="g68"
       inkscape:label="Proportion Art">
      <path
         id="path23-5"
         style="fill:none;fill-opacity:1;stroke:#000000;stroke-width:1;stroke-dasharray:none;stroke-opacity:1"
         d="M 373.28906,317.74609 300.95508,354 l -72.51953,-36.17188 42.50976,84.8125 17.57422,-0.0176 v 0.0586 l 42.42578,-0.041 24.66407,-49.44921 z" />
      <path
         style="fill:#ffffff;fill-opacity:1;stroke:#000000;stroke-width:1;stroke-dasharray:none;stroke-opacity:1"
         d="m 300.94501,402.64003 -30,-30 30,-90 30,90 z"
         id="path23" />
      <path
         style="fill:none;fill-opacity:1;stroke:#000000;stroke-width:1;stroke-dasharray:none;stroke-opacity:1"
         d="m 300.94501,297.64003 6.35139,6.35139 -6.35139,19.05418 -6.3514,-19.05418 z"
         id="path23-3" />
      <path
         style="fill:none;fill-opacity:1;stroke:#000000;stroke-width:1;stroke-dasharray:none;stroke-opacity:1"
         d="m 300.94501,372.64003 -6.35139,-6.35139 6.35139,-19.05418 6.3514,19.05418 z"
         id="path23-3-8" />
      <path
         style="fill:none;fill-opacity:1;stroke:#000000;stroke-width:1;stroke-dasharray:none;stroke-opacity:1"
         d="m 300.94501,402.64003 -15,-15 15,-15 15,15 z"
         id="path22" />
    </g>
    <g
       id="g69"
       inkscape:label="Variety Art">
      <rect
         style="fill:#000000;fill-opacity:1;stroke:none;stroke-width:0.783831;stroke-dasharray:none;stroke-opacity:1"
         id="rect25-7"
         width="132.81294"
         height="7.6475968"
         x="266.64001"
         y="-564.7688"
         transform="rotate(90)" />
      <rect
         style="fill:#000000;fill-opacity:1;stroke:none;stroke-width:0.783831;stroke-dasharray:none;stroke-opacity:1"
         id="rect25-7-3"
         width="132.81294"
         height="7.6475968"
         x="283.58597"
         y="-539.99908"
         transform="rotate(90)" />
      <path
         style="fill:#ffffff;fill-opacity:1;stroke:#ffffff;stroke-width:5;stroke-dasharray:none;stroke-opacity:1;paint-order:stroke markers fill"
         d="m 553.78218,323.45416 -4.32565,-4.32565 4.32565,-12.97697 4.32567,12.97697 z"
         id="path23-3-8-2-7-1" />
      <rect
         style="fill:#000000;fill-opacity:1;stroke:none;stroke-width:0.783831;stroke-dasharray:none;stroke-opacity:1"
         id="rect25"
         width="132.81294"
         height="7.6475968"
         x="465.94504"
         y="349.99243" />
      <rect
         style="fill:#000000;fill-opacity:1;stroke:none;stroke-width:0.783831;stroke-dasharray:none;stroke-opacity:1"
         id="rect25-5"
         width="132.81294"
         height="7.6475968"
         x="481.83212"
         y="373.30847" />
      <path
         style="fill:#ffffff;fill-opacity:1;stroke:#ffffff;stroke-width:5;stroke-dasharray:none;stroke-opacity:1;paint-order:stroke markers fill"
         d="m 503.44499,386.89629 -21.89828,-21.89828 21.89828,-65.69488 21.89832,65.69488 z"
         id="path23-3-8-2-0" />
      <path
         style="fill:none;fill-opacity:1;stroke:#000000;stroke-width:1.05181;stroke-dasharray:none;stroke-opacity:1"
         d="m 503.44499,386.89629 -21.89828,-21.89828 21.89828,-65.69488 21.89832,65.69488 z"
         id="path23-3-8-2" />
      <path
         style="fill:none;fill-opacity:1;stroke:#000000;stroke-width:1;stroke-dasharray:none;stroke-opacity:1"
         d="m 481.54671,364.99801 13.78777,-22.35796 8.11051,-43.33692 6.89963,43.33692 14.99869,22.35796"
         id="path24" />
      <path
         style="fill:none;fill-opacity:1;stroke:#000000;stroke-width:1;stroke-dasharray:none;stroke-opacity:1"
         d="m 481.54671,364.99801 14.39831,7.64202 7.49997,14.25626 7.50003,-14.25626 14.39829,-7.64202"
         id="path25" />
      <path
         style="fill:none;fill-opacity:1;stroke:#000000;stroke-width:1;stroke-dasharray:none;stroke-opacity:1"
         d="m 553.78218,323.45416 -4.32565,-4.32565 4.32565,-12.97697 4.32567,12.97697 z"
         id="path23-3-8-2-7" />
      <g
         id="g64"
         transform="translate(0,-0.63100167)">
        <path
           style="fill:#ffffff;fill-opacity:1;stroke:#ffffff;stroke-width:5;stroke-dasharray:none;stroke-opacity:1;paint-order:stroke markers fill"
           d="m 592.22808,352.52418 -2.58825,-2.58825 2.58825,-7.76476 2.58826,7.76476 z"
           id="path23-3-8-2-7-7-6" />
        <path
           style="fill:none;fill-opacity:1;stroke:#000000;stroke-width:1;stroke-dasharray:none;stroke-opacity:1"
           d="m 592.22808,353.10604 -2.58825,-2.58825 2.58825,-7.76476 2.58826,7.76476 z"
           id="path23-3-8-2-7-7" />
      </g>
      <path
         style="fill:#fffffe;fill-opacity:1;stroke:#ffffff;stroke-width:5;stroke-dasharray:none;stroke-opacity:1;paint-order:stroke markers fill"
         d="m 549.49724,394.0878 -12.89554,-12.89554 12.89554,-38.68663 12.89556,38.68663 z"
         id="path23-3-8-2-6" />
      <path
         style="fill:#ffffff;fill-opacity:1;stroke:#000000;stroke-width:1;stroke-dasharray:none;stroke-opacity:1"
         d="m 549.49724,394.0878 -12.89554,-12.89554 12.89554,-38.68663 12.89556,38.68663 z"
         id="path23-3-8-2-6-7" />
      <path
         style="fill:#ffffff;fill-opacity:1;stroke:#ffffff;stroke-width:5;stroke-dasharray:none;stroke-opacity:1;paint-order:stroke markers fill"
         d="m 535.60547,347.97956 -10.67907,-10.67907 10.67907,-32.03724 10.67909,32.03724 z"
         id="path23-3-8-2-9-7" />
      <path
         style="fill:none;fill-opacity:1;stroke:#000000;stroke-width:1;stroke-dasharray:none;stroke-opacity:1"
         d="m 535.60547,347.97956 -10.67907,-10.67907 10.67907,-32.03723 10.67909,32.03723 z"
         id="path23-3-8-2-9" />
    </g>
    <g
       id="g71"
       inkscape:label="Credit">
      <path
         id="rect64"
         style="stroke:#ffffff;stroke-width:2;paint-order:stroke markers fill"
         d="M 83.192924,543.26056 H 510.945 v 9.37943 H 83.192924 Z" />
      <path
         style="font-weight:bold;font-size:26.6667px;font-family:'TH Chakra Petch';-inkscape-font-specification:'TH Chakra Petch Bold';stroke:#ffffff;stroke-width:2;paint-order:stroke markers fill"
         d="m 99.173751,543.93404 1.119999,1.12 v 1.60001 l -1.119999,1.12 h -1.600002 l -1.120001,-1.12 v -0.61334 l -3.360004,1.73334 h -1.440002 v -6.72001 h -1.253335 l -1.120001,-1.12 v -1.57334 l 1.120001,-1.14667 h 1.573335 l 1.120002,1.14667 v 7.92001 l 4.320005,-2.21333 v -6.85335 h 1.440002 v 6.72001 z m -8.293343,-4.08 h 0.613334 l 0.4,-0.42667 v -0.58667 l -0.4,-0.42666 h -0.613334 l -0.400001,0.42666 v 0.58667 z m 8.213343,6.29334 v -0.58667 l -0.4,-0.42667 H 98.21375 l -0.266667,0.16 -0.266667,0.26667 v 0.58667 l 0.400001,0.42667 h 0.613334 z m 8.986689,-8.93335 1.44,1.44001 v 9.12001 h -1.44 v -8.53335 l -0.58667,-0.58666 h -3.62667 l -0.58666,0.61333 v 0.58667 h -1.44001 v -1.2 l 1.44001,-1.44001 z m 10.88002,0 h 1.44 v 9.12002 l -1.44,1.44 h -5.28001 l -1.44,-1.44 v -2.40001 l 0.96,-0.93333 -1.44,-1.44 v -3.20001 l 1.12,-1.14667 h 1.6 l 1.12,1.14667 v 1.57334 l -1.12,1.12 h -1.17333 l 1.92,1.94667 -1.54667,1.54667 v 1.2 l 0.58667,0.58667 h 4.10667 l 0.58667,-0.58667 z m -6.00001,1.62667 v 0.58667 l 0.42667,0.42667 h 0.58666 l 0.42667,-0.42667 v -0.58667 l -0.42667,-0.42666 h -0.58666 z m 23.28006,-1.62667 1.44,1.44001 v 9.12001 h -1.44 v -3.44001 l -1.12001,-1.14666 -0.98666,0.98666 h -1.60001 l -1.12,-1.12 v -1.57333 l 1.12,-1.14667 h 1.60001 l 2.10667,2.13333 v -3.2 l -0.58667,-0.61333 h -4.58667 l -0.58667,0.61333 v 0.58667 h -1.44 v -1.2 l 1.44,-1.44001 z m -2.18667,5.33334 v -0.58666 l -0.42667,-0.42667 h -0.58667 l -0.42667,0.42667 v 0.58666 l 0.42667,0.42667 h 0.58667 z m 4.93335,-9.33334 0.85334,0.85333 -1.54667,1.57334 h -5.49334 l -0.98667,-0.98667 v -1.38667 l 0.98667,-0.98667 h 1.38667 l 0.98666,0.98667 v 0.93334 h 2.85334 z m -5.30667,1.22667 0.29333,-0.29334 v -0.37333 l -0.29333,-0.29333 h -0.4 l -0.26667,0.29333 v 0.37333 l 0.26667,0.29334 z m 13.41335,2.8 1.44,1.41334 v 9.12001 h -1.44 v -8.50668 l -0.58667,-0.58667 h -4.56 l 1.54666,1.52 -1.68,1.68001 v 5.89334 h -1.44 v -6.48001 l 1.09333,-1.09334 -1.57333,-1.54666 1.44,-1.41334 z m 5.6,1.41334 -0.58667,0.61333 5.25334,1.06667 v 6.32001 l -1.12,1.12 h -1.57334 l -1.14667,-1.12 v -1.60001 l 1.14667,-1.12 h 1.25334 v -2.53333 l -5.20001,-1.06667 h -0.0533 v -1.68 l 1.41333,-1.44001 h 5.76001 v 1.44001 z m 3.46667,7.49334 v -0.58667 l -0.4,-0.42667 h -0.61334 l -0.4,0.42667 v 0.58667 l 0.4,0.42667 h 0.61334 z m 12.45336,-8.93335 h 1.44001 v 10.56002 h -1.44001 l -2.85333,-7.06668 -2.88001,7.06668 h -1.44 v -6.72001 h -1.28 l -1.12,-1.12 v -1.57334 l 1.12,-1.14667 h 1.57334 l 1.14666,1.14667 v 5.92001 l 2.88001,-7.06668 2.85333,7.06668 z m -7.94667,2.64001 h 0.58666 l 0.42667,-0.42667 v -0.58667 l -0.42667,-0.42666 h -0.58666 l -0.42667,0.42666 v 0.58667 z m 13.54669,-1.2 -0.58666,0.61333 5.25334,1.06667 v 6.32001 l -1.12001,1.12 h -1.57333 l -1.14667,-1.12 v -1.60001 l 1.14667,-1.12 h 1.25333 v -2.53333 l -5.2,-1.06667 h -0.0533 v -1.68 l 1.41334,-1.44001 h 5.76001 v 1.44001 z m 3.46667,7.49334 v -0.58667 l -0.4,-0.42667 h -0.61333 l -0.4,0.42667 v 0.58667 l 0.4,0.42667 h 0.61333 z m 5.3867,-7.49334 -0.58667,0.61333 5.25334,1.06667 v 6.32001 l -1.12,1.12 h -1.57334 l -1.14667,-1.12 v -1.60001 l 1.14667,-1.12 h 1.25334 v -2.53333 l -5.20001,-1.06667 h -0.0533 v -1.68 l 1.41333,-1.44001 h 5.76001 v 1.44001 z m 3.46667,7.49334 v -0.58667 l -0.4,-0.42667 h -0.61334 l -0.4,0.42667 v 0.58667 l 0.4,0.42667 h 0.61334 z m 11.1467,-8.93335 1.44,1.44001 v 9.12001 h -1.44 v -8.50668 l -0.58667,-0.61333 h -4.56001 l -0.61333,0.58666 v 6.69335 l 1.94667,-1.89334 -0.98667,-0.98667 v -1.6 l 1.14667,-1.12 h 1.57333 l 1.12,1.12 v 1.6 l -4.77333,4.72001 h -1.44001 v -9.12001 l 1.41334,-1.44001 z m -3.57334,4.74668 v 0.58666 l 0.4,0.42667 h 0.61333 l 0.4,-0.42667 v -0.58666 l -0.4,-0.42667 h -0.61333 z m 3.76,-9.46668 1.46667,1.44 v 1.68 h -8.16001 v -1.68 l 1.44,-1.44 z m -5.46667,1.92 h 5.70667 l -0.72,-0.72 h -4.26667 z m 7.33334,-6.90667 -1.22667,1.25333 0.82667,0.82667 v 1.38667 l -0.98667,0.98666 h -1.38666 l -0.98667,-0.98666 v -1.38667 l 2.90667,-2.93334 z m -1.89333,2.29333 h -0.4 l -0.26667,0.26667 v 0.4 l 0.26667,0.29333 h 0.4 l 0.29333,-0.29333 v -0.4 z m 19.54669,14.13335 1.12,1.12 v 1.60001 l -1.12,1.12 h -1.6 l -1.12,-1.12 v -0.61334 l -3.36001,1.73334 h -1.44 v -6.72001 h -1.25333 l -1.12,-1.12 v -1.57334 l 1.12,-1.14667 h 1.57333 l 1.12,1.14667 v 7.92001 l 4.32001,-2.21333 v -6.85335 h 1.44 v 6.72001 z m -8.29334,-4.08 h 0.61333 l 0.4,-0.42667 v -0.58667 l -0.4,-0.42666 h -0.61333 l -0.4,0.42666 v 0.58667 z m 8.21334,6.29334 v -0.58667 l -0.4,-0.42667 h -0.48 l -0.26667,0.16 -0.26666,0.26667 v 0.58667 l 0.4,0.42667 h 0.61333 z m -0.85332,-13.65335 1.46667,1.44 v 1.68 h -8.16001 v -1.68 l 1.44,-1.44 z m -5.46667,1.92 h 5.70667 l -0.72,-0.72 h -4.26667 z m 17.68002,2.8 1.44,1.44001 v 9.12001 h -1.44 v -8.50668 l -0.58667,-0.61333 h -0.53333 l -4.16001,9.12001 h -1.44 v -6.72001 h -1.25333 l -1.12,-1.12 v -1.57334 l 1.12,-1.14667 h 1.57333 l 1.12,1.14667 v 6.21334 l 3.36001,-7.36001 z m -7.49334,2.64001 h 0.61333 l 0.4,-0.42667 v -0.58667 l -0.4,-0.42666 h -0.61333 l -0.4,0.42666 v 0.58667 z m 13.09336,-1.2 -0.58667,0.61333 5.25334,1.06667 v 6.32001 l -1.12,1.12 h -1.57334 l -1.14667,-1.12 v -1.60001 l 1.14667,-1.12 h 1.25334 v -2.53333 l -5.20001,-1.06667 h -0.0533 v -1.68 l 1.41333,-1.44001 h 5.76001 v 1.44001 z m 3.46667,7.49334 v -0.58667 l -0.4,-0.42667 h -0.61334 l -0.4,0.42667 v 0.58667 l 0.4,0.42667 h 0.61334 z m 2.53335,-12.93335 0.85334,0.85333 -1.54667,1.57334 h -5.49334 l -0.98667,-0.98667 v -1.38667 l 0.98667,-0.98667 h 1.38667 l 0.98667,0.98667 v 0.93334 h 2.85333 z m -5.30667,1.22667 0.29333,-0.29334 v -0.37333 l -0.29333,-0.29333 h -0.4 l -0.26667,0.29333 v 0.37333 l 0.26667,0.29334 z m 15.22669,2.77333 h 1.44 v 10.56002 h -1.44 l -2.85334,-7.06668 -2.88,7.06668 h -1.44001 v -6.72001 h -1.28 l -1.12,-1.12 v -1.57334 l 1.12,-1.14667 h 1.57334 l 1.14667,1.14667 v 5.92001 l 2.88,-7.06668 2.85334,7.06668 z m -7.94668,2.64001 h 0.58667 l 0.42666,-0.42667 v -0.58667 l -0.42666,-0.42666 h -0.58667 l -0.42667,0.42666 v 0.58667 z m 18.82671,-2.64001 h 1.44 v 9.12002 l -1.44,1.44 h -5.28001 l -1.44,-1.44 v -2.40001 l 0.96,-0.93333 -1.44,-1.44 v -3.20001 l 1.12,-1.14667 h 1.6 l 1.12,1.14667 v 1.57334 l -1.12,1.12 h -1.17333 l 1.92,1.94667 -1.54667,1.54667 v 1.2 l 0.58667,0.58667 h 4.10667 l 0.58667,-0.58667 z m -6.00001,1.62667 v 0.58667 l 0.42667,0.42667 h 0.58667 l 0.42666,-0.42667 v -0.58667 l -0.42666,-0.42666 h -0.58667 z m 7.41337,-7.68001 -1.22667,1.22667 0.82667,0.82667 v 1.38667 l -0.98667,0.98667 h -1.38667 l -0.98667,-0.98667 v -1.38667 l 2.90667,-2.90667 z m -1.86667,2.26667 h -0.4 l -0.29334,0.29334 v 0.4 l 0.29334,0.26666 h 0.4 l 0.26666,-0.26666 v -0.4 z m 10.53335,17.65336 V 533.8007 h 1.44 v 17.28002 z m 18.1867,-12.16002 h -1.44 v -0.61333 l -0.58667,-0.58667 h -4.10667 l -0.58667,0.58667 v 7.44001 l 0.58667,0.58667 h 4.10667 l 0.58667,-0.58667 v -0.61334 h 1.44 v 1.22667 l -1.44,1.41334 h -5.28001 l -1.44,-1.44 v -8.64001 l 1.44,-1.41334 h 5.28001 l 1.44,1.44 z m 13.1467,-2.64 v 11.49335 h -1.41334 v -7.84001 l -3.36,7.84001 h -1.44 l -3.36001,-7.84001 v 7.84001 h -1.44 V 536.2807 h 1.44 l 4.08001,9.52001 4.08,-9.52001 z m 10.3467,0 v 1.44 h -3.33334 v 10.05335 h -1.44 V 537.7207 h -3.36 v -1.44 z m 8.34666,4.02667 1.44,1.44 v 4.58668 l -1.41333,1.44 h -4.82668 l -1.44,-1.44 v -8.64001 l 1.44,-1.44001 h 4.56001 l 1.44,1.44001 v 1.17333 h -1.44 v -0.58667 l -0.58667,-0.58666 h -3.38667 l -0.58667,0.58666 v 2.02667 z m 0,5.44001 v -3.38667 l -0.58667,-0.61334 h -3.62667 l -0.58667,0.58667 v 3.38667 l 0.61334,0.61334 h 3.6 z m 3.62666,-9.49335 h 7.68001 v 3.60001 l -3.12,2.45333 v 5.46668 h -1.44 v -6.00001 l 3.12,-2.48 v -1.6 h -4.8 v 1.17333 h -1.44001 z m 16.08004,0 1.44001,1.44001 v 8.64001 l -1.44001,1.44 h -4.8 l -1.44,-1.44 v -8.64001 l 1.44,-1.44001 z m 0,9.49335 v -7.46668 l -0.61333,-0.58666 h -3.6 l -0.58667,0.58666 v 7.44001 l 0.58667,0.61334 h 3.62667 z m 11.17337,0.58667 v 1.44 h -7.68001 v -2.64001 l 6.00001,-5.28 v -1.57334 l -0.58667,-0.58666 H 346.401 l -0.58667,0.58666 v 0.58667 h -1.44 v -1.17333 l 1.44,-1.44001 h 4.56001 l 1.44,1.44001 v 2.64 l -6.00001,5.28001 v 0.72 z m 20.42672,-2.16001 h -5.28001 v -1.44 h 5.28001 z m 10.45333,-7.92001 h 1.41334 v 11.52002 h -1.44 v -9.49335 l -0.66667,0.66667 -1.01334,-1.01333 1.68001,-1.68001 h 0.0267 z m 5.41333,0 h 1.41334 v 11.52002 h -1.44 v -9.49335 l -0.66667,0.66667 -1.01334,-1.01333 1.68001,-1.68001 h 0.0267 z m 9.75997,4.05334 1.44001,1.44 v 4.58668 l -1.41334,1.44 h -4.82667 l -1.44,-1.44 v -8.64001 l 1.44,-1.44001 h 4.56 l 1.44001,1.44001 v 1.17333 h -1.44001 v -0.58667 l -0.58666,-0.58666 h -3.38667 l -0.58667,0.58666 v 2.02667 z m 0,5.44001 v -3.38667 l -0.58666,-0.61334 h -3.62667 l -0.58667,0.58667 v 3.38667 l 0.61333,0.61334 h 3.60001 z m 3.62668,-9.49335 h 7.68001 v 3.60001 l -3.12,2.45333 v 5.46668 h -1.44 v -6.00001 l 3.12,-2.48 v -1.6 h -4.8 v 1.17333 h -1.44001 z m 11.70671,0 h 1.41333 v 11.52002 h -1.44 v -9.49335 l -0.66667,0.66667 -1.01333,-1.01333 1.68,-1.68001 h 0.0267 z m 9.78667,0 1.44,1.44001 v 8.64001 l -1.44,1.44 h -4.80001 l -1.44,-1.44 v -8.64001 l 1.44,-1.44001 z m 0,9.49335 v -7.46668 l -0.61334,-0.58666 h -3.6 l -0.58667,0.58666 v 7.44001 l 0.58667,0.61334 h 3.62667 z m 10.24001,-4.45334 0.96,0.96 v 4.08001 l -1.44,1.44 h -4.80001 l -1.44,-1.44 v -4.10668 l 0.96,-0.93333 -0.48,-0.48 v -3.12 l 1.44001,-1.44001 h 3.84 l 1.44,1.44001 v 3.12 z m -4.8,-3.01334 v 1.94667 l 0.58666,0.58667 h 2.66667 l 0.58667,-0.58667 v -1.94667 l -0.58667,-0.58666 h -2.66667 z m 4.32,7.46668 v -2.90667 l -0.58667,-0.58667 h -3.62667 l -0.58667,0.58667 v 2.88 l 0.58667,0.61334 h 3.62667 z m 9.84002,-9.49335 1.44,1.44001 v 8.64001 l -1.44,1.44 h -4.8 l -1.44001,-1.44 v -8.64001 l 1.44001,-1.44001 z m 0,9.49335 v -7.46668 l -0.61333,-0.58666 h -3.60001 l -0.58666,0.58666 v 7.44001 l 0.58666,0.61334 h 3.62667 z m 9.76002,-5.44001 1.44,1.44 v 4.58668 l -1.41334,1.44 h -4.82667 l -1.44,-1.44 v -8.64001 l 1.44,-1.44001 h 4.56001 l 1.44,1.44001 v 1.17333 h -1.44 v -0.58667 l -0.58667,-0.58666 h -3.38667 l -0.58667,0.58666 v 2.02667 z m 0,5.44001 v -3.38667 l -0.58667,-0.61334 h -3.62667 l -0.58667,0.58667 v 3.38667 l 0.61334,0.61334 h 3.6 z m 9.84002,-9.49335 1.44,1.44001 v 8.64001 l -1.44,1.44 h -4.80001 l -1.44,-1.44 v -8.64001 l 1.44,-1.44001 z m 0,9.49335 v -7.46668 l -0.61334,-0.58666 h -3.6 l -0.58667,0.58666 v 7.44001 l 0.58667,0.61334 h 3.62667 z m 9.78668,-9.49335 1.44,1.44001 v 8.64001 l -1.44,1.44 h -4.80001 l -1.44,-1.44 v -8.64001 l 1.44,-1.44001 z m 0,9.49335 v -7.46668 l -0.61333,-0.58666 h -3.60001 l -0.58667,0.58666 v 7.44001 l 0.58667,0.61334 h 3.62667 z m 9.76005,-5.44001 1.44,1.44 v 4.58668 l -1.41334,1.44 h -4.82667 l -1.44,-1.44 v -8.64001 l 1.44,-1.44001 h 4.56001 l 1.44,1.44001 v 1.17333 h -1.44 v -0.58667 l -0.58667,-0.58666 h -3.38667 l -0.58667,0.58666 v 2.02667 z m 0,5.44001 v -3.38667 l -0.58667,-0.61334 h -3.62667 l -0.58667,0.58667 v 3.38667 l 0.61333,0.61334 h 3.60001 z m 8.90665,-1.57334 h -5.28 v -1.44 h 5.28 z m 8.80003,-2.88 0.96,0.96 v 4.08001 l -1.44,1.44 h -4.80001 l -1.44,-1.44 v -4.10668 l 0.96,-0.93333 -0.48,-0.48 v -3.12 l 1.44001,-1.44001 h 3.84 l 1.44,1.44001 v 3.12 z m -4.8,-3.01334 v 1.94667 l 0.58666,0.58667 h 2.66667 l 0.58667,-0.58667 v -1.94667 l -0.58667,-0.58666 h -2.66667 z m 4.32,7.46668 v -2.90667 l -0.58667,-0.58667 h -3.62667 l -0.58667,0.58667 v 2.88 l 0.58667,0.61334 h 3.62667 z"
         id="text64"
         aria-label="นาย จักรพรรดิ์ นิทรัพย์ | CMT6702  - 116710806006-8" />
    </g>
    <g
       id="g65"
       inkscape:label="Emphasis Art">
      <path
         style="fill:#ffffff;fill-opacity:1;stroke:#000000;stroke-width:1;stroke-dasharray:none;stroke-opacity:1;paint-order:normal"
         d="m 137.00848,138.54483 -13.93654,-20.9048 13.93654,-34.841338 13.93653,34.841338 z"
         id="path60-6" />
      <path
         style="fill:#ffffff;fill-opacity:1;stroke:#000000;stroke-width:1;stroke-dasharray:none;stroke-opacity:1;paint-order:normal"
         d="m 75.383094,138.54483 -13.93654,-20.9048 13.93654,-34.841338 13.93653,34.841338 z"
         id="path60-6-9" />
      <path
         style="fill:#ffffff;fill-opacity:1;stroke:#000000;stroke-width:1;stroke-dasharray:none;stroke-opacity:1;paint-order:normal"
         d="m 105.94501,162.64003 -30.000001,-45 30.000001,-74.999998 30,74.999998 z"
         id="path60" />
      <path
         style="fill:#000000;fill-opacity:1;stroke:#000000;stroke-width:1;stroke-dasharray:none;stroke-opacity:1;paint-order:normal"
         d="m 135.94501,117.64003 -30,45 -4.55222,-6.82833 31.66763,-45.36239 z"
         id="path61" />
      <path
         style="fill:#000000;fill-opacity:1;stroke:#000000;stroke-width:1;stroke-dasharray:none;stroke-opacity:1;paint-order:normal"
         d="m 105.94501,42.640032 -30.000001,74.999998 3.383885,5.07583 30.616116,-70.075828 z"
         id="path62" />
    </g>
    <g
       id="g70"
       inkscape:label="Harmony Art">
      <g
         id="g35">
        <path
           d="m 661.645,268.844 30,30 -0.235,0.467 -29.965,59.441 0.022,-9.707 z"
           style="fill:#000000;fill-opacity:1;stroke:#000000;stroke-width:1;stroke-dasharray:none;stroke-opacity:1;paint-order:normal"
           id="path29" />
        <path
           d="m 661.645,268.844 c 0,0 35.822,29.194 37.232,29.741 0.099,0.038 0.084,0.193 -0.045,0.448 -2.347,4.656 -32.512,61.6 -35.879,66.988 -0.968,1.549 -1.584,-0.575 -1.573,-5.544 0.043,-19.373 0.265,-91.633 0.265,-91.633"
           style="fill:#000000;fill-opacity:0;stroke:#000000;stroke-width:1;stroke-dasharray:none;stroke-opacity:1;paint-order:normal"
           id="path30" />
        <path
           d="m 661.645,268.844 c 0,0 41.643,28.388 44.465,29.482 0.196,0.076 0.247,0.224 0.145,0.428 -1.878,3.725 -35.06,63.761 -41.795,74.537 -1.936,3.097 -3.176,2.593 -3.167,-1.381 0.034,-15.499 0.352,-103.066 0.352,-103.066"
           style="fill:#000000;fill-opacity:0;stroke:#000000;stroke-width:1;stroke-dasharray:none;stroke-opacity:1;paint-order:normal"
           id="path31" />
        <path
           d="m 661.645,268.844 c 0,0 47.465,27.582 51.697,29.223 0.295,0.114 0.412,0.256 0.335,0.409 -1.408,2.794 -37.607,65.92 -47.709,82.084 -2.904,4.646 -4.769,5.763 -4.762,2.782 0.026,-11.624 0.439,-114.498 0.439,-114.498"
           style="fill:#000000;fill-opacity:0;stroke:#000000;stroke-width:1;stroke-dasharray:none;stroke-opacity:1;paint-order:normal"
           id="path32" />
        <path
           d="m 661.645,268.844 c 0,0 53.286,26.776 58.929,28.963 0.394,0.153 0.577,0.288 0.526,0.39 -0.939,1.863 -40.155,68.081 -53.625,89.632 -3.871,6.194 -6.361,8.933 -6.356,6.946 0.017,-7.749 0.526,-125.931 0.526,-125.931"
           style="fill:#000000;fill-opacity:0;stroke:#000000;stroke-width:1;stroke-dasharray:none;stroke-opacity:1;paint-order:normal"
           id="path33" />
        <path
           d="m 661.645,268.844 c 0,0 59.108,25.97 66.162,28.704 0.492,0.191 0.741,0.32 0.715,0.371 -0.469,0.931 -42.702,70.24 -59.539,97.179 -4.84,7.743 -7.953,12.103 -7.951,11.11 0.009,-3.875 0.613,-137.364 0.613,-137.364"
           style="fill:#000000;fill-opacity:0;stroke:#000000;stroke-width:1;stroke-dasharray:none;stroke-opacity:1;paint-order:normal"
           id="path34" />
        <path
           d="m 661.645,268.844 73.394,28.445 0.906,0.351 -65.455,104.728 -9.545,15.272 z"
           style="fill:#000000;fill-opacity:0;stroke:#000000;stroke-width:1;stroke-dasharray:none;stroke-opacity:1;paint-order:normal"
           id="path35" />
        <path
           style="fill:#000000;fill-opacity:0;stroke:#000000;stroke-width:1;stroke-dasharray:none;stroke-opacity:1;paint-order:normal"
           d="m 661.64501,268.84446 -0.69999,88.79557"
           id="path43" />
        <path
           style="fill:#000000;fill-opacity:0;stroke:#000000;stroke-width:1;stroke-dasharray:none;stroke-opacity:1;paint-order:normal"
           d="m 811.1345,332.511 -0.18948,85.12903"
           id="path44" />
      </g>
      <g
         id="g42">
        <path
           d="m 810.945,417.64 -30,-30 0.38,-0.753 29.82,-59.155 -0.021,9.558 z"
           style="fill:#000000;fill-opacity:1;stroke:#000000;stroke-width:1;stroke-dasharray:none;stroke-opacity:1;paint-order:normal"
           id="path36" />
        <path
           d="m 810.945,417.64 c 0,0 -35.512,-29.205 -37.256,-29.902 -0.158,-0.064 -0.134,-0.317 0.073,-0.726 2.906,-5.765 32.414,-61.397 35.774,-66.773 0.959,-1.535 1.569,0.547 1.558,5.443 -0.043,19.294 -0.149,91.958 -0.149,91.958"
           style="fill:#000000;fill-opacity:0;stroke:#000000;stroke-width:1;stroke-dasharray:none;stroke-opacity:1;paint-order:normal"
           id="path37" />
        <path
           d="m 810.945,417.64 c 0,0 -41.025,-28.41 -44.513,-29.805 -0.315,-0.126 -0.399,-0.37 -0.234,-0.697 2.325,-4.613 35.008,-63.641 41.728,-74.393 1.919,-3.07 3.147,-2.588 3.138,1.329 -0.034,15.435 -0.119,103.566 -0.119,103.566"
           style="fill:#000000;fill-opacity:0;stroke:#000000;stroke-width:1;stroke-dasharray:none;stroke-opacity:1;paint-order:normal"
           id="path38" />
        <path
           d="m 810.945,417.64 c 0,0 -46.537,-27.615 -51.769,-29.707 -0.473,-0.19 -0.665,-0.424 -0.541,-0.67 1.744,-3.459 37.602,-65.884 47.682,-82.012 2.878,-4.605 4.724,-5.723 4.717,-2.786 -0.025,11.576 -0.089,115.175 -0.089,115.175"
           style="fill:#000000;fill-opacity:0;stroke:#000000;stroke-width:1;stroke-dasharray:none;stroke-opacity:1;paint-order:normal"
           id="path39" />
        <path
           d="m 810.945,417.64 c 0,0 -52.049,-26.82 -59.025,-29.61 -0.631,-0.252 -0.931,-0.478 -0.848,-0.641 1.162,-2.306 40.196,-68.128 53.636,-89.632 3.837,-6.14 6.301,-8.859 6.297,-6.9 -0.018,7.717 -0.06,126.783 -0.06,126.783"
           style="fill:#000000;fill-opacity:0;stroke:#000000;stroke-width:1;stroke-dasharray:none;stroke-opacity:1;paint-order:normal"
           id="path40" />
        <path
           d="m 810.945,417.64 c 0,0 -57.562,-26.025 -66.281,-29.512 -0.789,-0.316 -1.197,-0.532 -1.156,-0.614 0.582,-1.153 42.79,-70.37 59.59,-97.25 4.797,-7.675 7.879,-11.995 7.877,-11.016 -0.009,3.859 -0.03,138.392 -0.03,138.392"
           style="fill:#000000;fill-opacity:0;stroke:#000000;stroke-width:1;stroke-dasharray:none;stroke-opacity:1;paint-order:normal"
           id="path41" />
        <path
           d="m 810.945,417.64 -73.538,-29.415 -1.462,-0.585 65.544,-104.87 9.456,-15.13 z"
           style="fill:#000000;fill-opacity:0;stroke:#000000;stroke-width:1;stroke-dasharray:none;stroke-opacity:1;paint-order:normal"
           id="path42" />
      </g>
      <path
         style="fill:none;fill-opacity:1;stroke:#000000;stroke-width:0.443875;stroke-dasharray:none;stroke-opacity:1;paint-order:normal"
         d="m 735.94502,364.27255 -6.65813,-6.65813 6.65813,-19.97439 6.65813,19.97439 z"
         id="path51-3" />
      <path
         style="fill:#000000;fill-opacity:0;stroke:#000000;stroke-width:1;stroke-dasharray:none;stroke-opacity:1;paint-order:normal"
         d="m 810.94502,417.64003 -30,-30 30.19999,-59.90756 z"
         id="path26"
         sodipodi:nodetypes="cccc" />
      <path
         style="fill:#000000;fill-opacity:0;stroke:#000000;stroke-width:1;stroke-dasharray:none;stroke-opacity:1;paint-order:normal"
         d="m 661.64501,268.84446 30,30 -30.19999,59.90756 z"
         id="path26-3"
         sodipodi:nodetypes="cccc" />
      <path
         style="fill:#000000;fill-opacity:0;stroke:#000000;stroke-width:1;stroke-dasharray:none;stroke-opacity:1;paint-order:normal"
         d="m 661.64501,268.84446 74.30001,28.79557 -75,120 z"
         id="path27" />
      <path
         style="fill:#000000;fill-opacity:0;stroke:#000000;stroke-width:1;stroke-dasharray:none;stroke-opacity:1;paint-order:normal"
         d="m 810.94502,417.64003 -75,-30 75,-120 z"
         id="path28" />
      <path
         style="fill:#000000;fill-opacity:1;stroke:#000000;stroke-width:1;stroke-dasharray:none;stroke-opacity:1;paint-order:normal"
         d="m 735.94502,372.64003 -15,-15 15,-45 15,45 z"
         id="path51" />
    </g>
  </g>
</svg>
